@startuml business-partner

skinparam dpi 50

package "Business Partner and References" {
  entity BusinessPartner {
    ExternalID
    NameParts
    IsOwnCompanyData
    CreatedAt
    UpdateAt
  }

  ' taken out from 24.05 using the separate entity states only
  ' class BusinessPartnerState {
  '   ValidFrom
  '   ValidTo
  ' }

  ' enum BusinessPartnerStateType {
  '   Active
  '   Inactive
  ' }

  class LegalEntityState {
    ValidFrom
    ValidTo
  }

  enum LegalEntityStateType {
    ACTIVE
    INACTIVE
  }
  
  class SiteState {
    ValidFrom
    ValidTo
  }

  enum SiteStateType{
    ACTIVE
    INACTIVE
  }

  class AddressState {
    ValidFrom
    ValidTo
  }

  enum AddressStateType{
    ACTIVE
    INACTIVE
  }

  class BusinessPartnerIdentifier {
    Value
    IssuingBody
  }

  ' taken out from 24.05, as not clear if this is modelled correctly
  ' class Classification{
  '   Value
  '   Code
  ' }
    
  ' enum ClassificationType {
  '   NACE
  '   NAF
  '   NAICS
  '   SIC
  ' }

  entity IdentifierType {
    TechnicalKey
    Name
    ...
  }

  enum Role {
    SUPPLIER
    CUSTOMER
  }

  entity LegalForm {
    TechnicalKey
    ...
  }

  entity LegalEntity {
    BPNL
    ...
  }

  class LegalEntityRepresentation {
    LegalName
    ShortName
  }

  class LegalEntityGoldenRecordRelation {
    SourceBPN
    TargetBPN
  }

  enum LegalEntityGoldenRecordRelationType {
    IsAlternativeHeadquarterFor
    IsManagedBy
    IsOwnedBy
  }

  entity Site {
    BPNS
    ...
  }

  class SiteRepresentation {
    Name
  }

  class AdditionalSite {
    Name
  }

  entity Address {
    BPNA
    ...
  }

  class AddressRepresentation {
    Name
  }

  class AddressGoldenRecordRelation {
    SourceBPN
    TargetBPN
  }

  enum AddressGoldenRecordRelationType {
    IsReplacedBy
  }

  ' not yet standardized, as not clear if operating company can correctly implement it
  ' class ConfidenceCriteria {
  '   SharedByOwner
  '   CheckedByExternalSource
  '   NumberOfSharingMembers
  '   LastConfidenceCheckAt
  '   NextConfidenceCheckAt
  '   ConfidenceLevel
  ' }

  enum AddressType {
    LegalAddress
    SiteMainAddress
    LegalAndSiteMainAddress
    AdditionalAddress
  }
  
  class AlternativePostalAddress{
    DeliveryServiceQualifier
    DeliveryServiceNumber
  }

  enum DeliveryServiceType {
    PO_BOX
    PRIVATE_BAG
    BOITE_POSTALE
  }

  class PhysicalPostalAddress{
    AdministrativeAreaLevel2
    AdministrativeAreaLevel3
    District
    CompanyPostalCode
    TaxJurisdictionCode
    IndustrialZone
    Building
    Floor
    Door 
  }

  abstract class PostalAddress{
    PostalCode
    City
  }

  enum Country {
    DE
    FR
    US
    ...
  }

  entity AdministrativeAreaLevel1{
    Code
    Name
    ...
  }

  class GeographicCoordinates {
    Latitude
    Longitude
    Altitude
  }

  class Street {
    NamePrefix
    AdditionalNamePrefix
    Name
    NameSuffix
    AdditionalNameSuffix
    HouseNumber
    HouseNumberSupplement
    Milestone
    Direction
  }

  class BusinessPartnerScriptVariant {
    ScriptCode
    NameParts
    ...
  }

  BusinessPartner "1" -u-> "1" LegalEntityRepresentation : LegalEntity
  BusinessPartner "1" -u-> "0..1" SiteRepresentation : Site
  BusinessPartner "1" -u-> "1" AddressRepresentation : Address
  BusinessPartner "1" -u-> "*" AdditionalSite : AdditionalSites

  LegalEntityRepresentation "0..1" -u-> "1" LegalEntity : BPNL
  SiteRepresentation "0..1" -u-> "1" Site : BPNS
  AddressRepresentation "0..1" -u-> "1" Address : BPNA
  AdditionalSite "*" -u-> "1" Site : BPNS

  AddressRepresentation "*" -u-o "1" AddressType : Type
  AddressRepresentation "1" -d-> "0..1" AlternativePostalAddress : AlternativePostalAddress
  AlternativePostalAddress "*" -d-o "1" DeliveryServiceType : DeliveryServiceType
  AlternativePostalAddress -d-|> PostalAddress
  
  AddressRepresentation "1" -d-> "1" PhysicalPostalAddress : PhysicalPostalAddress
  PhysicalPostalAddress "1" -d-> "0..1" Street : Street
  PhysicalPostalAddress -d-|> PostalAddress
  
  PostalAddress "*" -d-o "1" Country : Country
  PostalAddress "*" -d-o "0..1" AdministrativeAreaLevel1 : AdministrativeAreaLevel1
  PostalAddress "1" -d-> "0..1" GeographicCoordinates : GeographicCoordinates

  ' not yet standardized, as not clear if operating company can correctly implement it
  ' LegalEntityRepresentation "1" -u-> "1" ConfidenceCriteria : ConfidenceCriteria
  ' SiteRepresentation "1" -u-> "1" ConfidenceCriteria : ConfidenceCriteria
  ' AddressRepresentation "1" -u-> "1" ConfidenceCriteria : ConfidenceCriteria

  ' taken out from 24.05 using the separate entity states only
  ' BusinessPartner "1" *-d-> "*" BusinessPartnerState : States
  ' BusinessPartnerState "*" -d-o "1" BusinessPartnerStateType : Type
  
  LegalEntityRepresentation "1" *-u-> "*" LegalEntityState : States
  LegalEntityState "*" -u-o "1" LegalEntityStateType : Type

  LegalEntityRepresentation "1" *-r-> "*" LegalEntityGoldenRecordRelation : GoldenRecordRelations
  LegalEntityGoldenRecordRelation "*" -r-o "1" LegalEntityGoldenRecordRelationType : Type

  SiteRepresentation "1" *-u-> "*" SiteState : States
  SiteState "*" -u-o "1" SiteStateType : Type

  AddressRepresentation "1" *-u-> "*" AddressState : States
  AddressState "*" -u-o "1" AddressStateType : Type

  AddressRepresentation "1" *-r-> "*" AddressGoldenRecordRelation : GoldenRecordRelations
  AddressGoldenRecordRelation "*" -r-o "1" AddressGoldenRecordRelationType : Type

  BusinessPartner "1" *-d-> "*" BusinessPartnerIdentifier : Identifiers
  BusinessPartnerIdentifier "*" -d-o "1" IdentifierType : Type

  BusinessPartner "*" -d-o "*" Role : Roles

  ' taken out from 24.05, as not clear if this is modelled correctly
  ' LegalEntityRepresentation "1" *-d-> "*" Classification : Classifications
  ' Classification "*" -d-o "1" ClassificationType : Type
  
  LegalEntityRepresentation "*" -d-o "0..1" LegalForm : LegalForm

  BusinessPartner "1" *-d-> "*" BusinessPartnerScriptVariant : ScriptVariants
}

hide methods
hide AddressRepresentation methods
hide LegalEntityRepresentation methods 
hide SiteRepresentation methods
@enduml