@startuml Figure_4

Received : The provider accepted the request for processing.
Working : The provider is processing the request and preparing the response.
Completed : The provider was able to successfully process AND respond to the request.
Error : The provider was unable to process OR respond to the request.

[*] --> Received : Consumer requested short-term Material Demand
Received --> Working : Provider started processing the request
Received --> Error : Provider could NOT process the request

Working --> Completed : Provider processed AND responded to the request
Working --> Error : Error occured during request processing

Completed --> [*]

Error --> [*]

@enduml